<svg width="24" height="24" viewBox="0 0 24 24" fill="none" xmlns="http://www.w3.org/2000/svg">
<g clip-path="url(#clip0_240_853)">
<path d="M11.1429 18.8571H12.8572M17.1429 8.57143V5.14286M9.42862 8.57143V2.57143H4.28577V8.57143M20.5715 3C20.5715 3.28141 20.5161 3.56006 20.4084 3.82004C20.3007 4.08002 20.1428 4.31625 19.9439 4.51523C19.7449 4.71422 19.5086 4.87206 19.2487 4.97975C18.9887 5.08744 18.71 5.14286 18.4286 5.14286H15.8572C15.2889 5.14286 14.7438 4.9171 14.342 4.51523C13.9401 4.11337 13.7143 3.56833 13.7143 3C13.7143 2.43168 13.9401 1.88664 14.342 1.48478C14.7438 1.08291 15.2889 0.857147 15.8572 0.857147H18.4286C18.71 0.857147 18.9887 0.912574 19.2487 1.02026C19.5086 1.12795 19.7449 1.28579 19.9439 1.48478C20.1428 1.68376 20.3007 1.91998 20.4084 2.17997C20.5161 2.43995 20.5715 2.7186 20.5715 3Z" stroke="#232325" stroke-width="2" stroke-linecap="round" stroke-linejoin="round"/>
<path d="M21.4286 14.5714H2.57146C1.62469 14.5714 0.857178 15.339 0.857178 16.2857V21.4286C0.857178 22.3754 1.62469 23.1429 2.57146 23.1429H21.4286C22.3754 23.1429 23.1429 22.3754 23.1429 21.4286V16.2857C23.1429 15.339 22.3754 14.5714 21.4286 14.5714Z" stroke="#232325" stroke-width="2" stroke-linecap="round" stroke-linejoin="round"/>
<path d="M21.4286 14.5714V10.2857C21.4286 9.83107 21.2479 9.39504 20.9265 9.07354C20.605 8.75205 20.1689 8.57144 19.7143 8.57144H4.2857C3.83104 8.57144 3.395 8.75205 3.07351 9.07354C2.75202 9.39504 2.57141 9.83107 2.57141 10.2857V14.5714" stroke="#232325" stroke-width="2" stroke-linecap="round" stroke-linejoin="round"/>
</g>
<defs>
<clipPath id="clip0_240_853">
<rect width="24" height="24" fill="white"/>
</clipPath>
</defs>
</svg>
